<svg width="41" height="41" viewBox="0 0 41 41" fill="none" xmlns="http://www.w3.org/2000/svg">
<g filter="url(#filter0_d_472_62)">
<path d="M4.5354 5.31904C4.5354 2.66808 6.68443 0.519043 9.3354 0.519043H31.7354C34.3864 0.519043 36.5354 2.66808 36.5354 5.31904V27.719C36.5354 30.37 34.3864 32.519 31.7354 32.519H9.3354C6.68443 32.519 4.5354 30.37 4.5354 27.719V5.31904Z" fill="#7915C1"/>
<path d="M11.0583 19.5731C10.7852 19.5731 10.5463 19.5151 10.3415 19.399C10.1435 19.2898 10.0445 19.0953 10.0445 18.8154C10.0445 18.6379 10.0889 18.4399 10.1776 18.2214C10.3005 18.358 10.4132 18.4535 10.5156 18.5082C10.6248 18.5628 10.7408 18.5901 10.8637 18.5901C11.2051 18.5901 11.4576 18.3989 11.6215 18.0166C11.7921 17.6343 11.8775 17.2111 11.8775 16.7469C11.8775 15.8799 11.5532 15.4464 10.9047 15.4464C10.7204 15.4464 10.5633 15.4566 10.4336 15.4771L9.59396 19.399H8.1194L9.51204 12.8864L11.0276 12.6816L10.5463 14.9549H10.6077C10.8671 14.9549 11.1095 14.873 11.3348 14.7091C11.56 14.5385 11.7409 14.3268 11.8775 14.0742C12.014 13.8148 12.0823 13.5554 12.0823 13.296C12.0823 12.982 11.9696 12.7191 11.7444 12.5075C11.5259 12.2959 11.188 12.1901 10.7306 12.1901C10.3142 12.1901 9.90799 12.2857 9.51204 12.4768C9.11609 12.6611 8.79183 12.941 8.53924 13.3165C8.29348 13.6919 8.1706 14.1459 8.1706 14.6784C8.1706 14.931 8.19449 15.1085 8.24228 15.2109C8.29007 15.3065 8.31396 15.3611 8.31396 15.3747C7.95215 15.3747 7.67908 15.303 7.49476 15.1597C7.31044 15.0095 7.21828 14.7671 7.21828 14.4326C7.21828 13.9684 7.39236 13.5281 7.74052 13.1117C8.08868 12.6953 8.54948 12.3607 9.12292 12.1082C9.69636 11.8487 10.3005 11.719 10.9354 11.719C11.4133 11.719 11.816 11.7941 12.1437 11.9443C12.4714 12.0945 12.7137 12.2925 12.8708 12.5382C13.0346 12.784 13.1165 13.0537 13.1165 13.3472C13.1165 13.6612 13.0278 13.965 12.8503 14.2586C12.6728 14.5521 12.4202 14.791 12.0925 14.9754C12.5021 15.0505 12.8059 15.2416 13.0039 15.5488C13.2019 15.8492 13.3008 16.2076 13.3008 16.624C13.3008 17.0131 13.2257 17.4364 13.0756 17.8938C12.9322 18.3511 12.6899 18.7471 12.3485 19.0816C12.014 19.4093 11.5839 19.5731 11.0583 19.5731Z" fill="white"/>
<path d="M15.3655 13.7261C15.1402 13.7261 14.9491 13.6476 14.792 13.4906C14.635 13.3335 14.5565 13.1424 14.5565 12.9171C14.5565 12.6918 14.635 12.5007 14.792 12.3437C14.9491 12.1798 15.1402 12.0979 15.3655 12.0979C15.5908 12.0979 15.7819 12.1798 15.9389 12.3437C16.1028 12.5007 16.1847 12.6918 16.1847 12.9171C16.1847 13.1424 16.1028 13.3335 15.9389 13.4906C15.7819 13.6476 15.5908 13.7261 15.3655 13.7261ZM14.6692 19.4605C14.3415 19.4605 14.0752 19.3581 13.8704 19.1533C13.6725 18.9485 13.5735 18.6413 13.5735 18.2317C13.5735 18.061 13.6008 17.8391 13.6554 17.5661L14.3517 14.279H15.8263L15.089 17.7606C15.0617 17.863 15.048 17.9723 15.048 18.0883C15.048 18.2249 15.0788 18.3238 15.1402 18.3853C15.2085 18.4399 15.3177 18.4672 15.4679 18.4672C15.6659 18.4672 15.8502 18.3853 16.0208 18.2214C16.1915 18.0508 16.3144 17.8323 16.3895 17.5661H16.8196C16.567 18.3034 16.2427 18.8051 15.8468 19.0714C15.4508 19.3308 15.0583 19.4605 14.6692 19.4605Z" fill="white"/>
<path d="M17.8804 19.44C17.3753 19.44 16.9759 19.3103 16.6824 19.0509C16.3888 18.7915 16.242 18.3819 16.242 17.8221C16.242 17.351 16.3342 16.8356 16.5185 16.2758C16.7028 15.7092 17.0032 15.2211 17.4196 14.8115C17.8361 14.3951 18.3685 14.1869 19.0171 14.1869C19.8226 14.1869 20.2561 14.6477 20.3176 15.5693C20.4677 15.5351 20.6009 15.4532 20.7169 15.3235C20.833 15.187 20.9422 15.0334 21.0446 14.8627H21.3723C21.188 15.2314 21.0241 15.5215 20.8808 15.7331C20.7374 15.9379 20.5497 16.1052 20.3176 16.2349C20.2766 16.8766 20.1435 17.4398 19.9182 17.9245C19.6997 18.4092 19.413 18.7846 19.058 19.0509C18.7031 19.3103 18.3105 19.44 17.8804 19.44ZM18.29 18.5184C18.5426 18.5184 18.7781 18.3136 18.9966 17.904C19.2151 17.4944 19.3652 16.9892 19.4472 16.3885C19.2833 16.327 19.2014 16.1734 19.2014 15.9277C19.2014 15.6614 19.297 15.4839 19.4881 15.3952C19.4745 15.1767 19.4369 15.0266 19.3755 14.9446C19.3209 14.8559 19.2287 14.8115 19.099 14.8115C18.8737 14.8115 18.6587 14.9754 18.4539 15.303C18.2491 15.6239 18.0818 16.0164 17.9521 16.4806C17.8292 16.938 17.7678 17.3408 17.7678 17.689C17.7678 18.0166 17.8053 18.2385 17.8804 18.3546C17.9555 18.4638 18.0921 18.5184 18.29 18.5184Z" fill="white"/>
<path d="M23.6077 20.5664C23.3551 20.5664 23.1333 20.5459 22.9421 20.505C22.751 20.464 22.5837 20.365 22.4404 20.208C22.3038 20.051 22.2356 19.8086 22.2356 19.481C22.2356 19.0236 22.3721 18.4092 22.6452 17.6378C22.9251 16.8663 23.2903 16.0915 23.7408 15.3133C23.3995 15.3338 23.1299 15.385 22.9319 15.4669C22.7339 15.5488 22.6042 15.6751 22.5428 15.8458C22.5701 15.8458 22.5974 15.8799 22.6247 15.9482C22.6588 16.0164 22.6759 16.0881 22.6759 16.1632C22.6759 16.2861 22.6213 16.3851 22.512 16.4602C22.4028 16.5284 22.2663 16.5626 22.1024 16.5626C21.9113 16.5626 21.7577 16.5114 21.6416 16.409C21.5256 16.3066 21.4676 16.1598 21.4676 15.9686C21.4676 15.7365 21.5563 15.5249 21.7338 15.3338C21.9181 15.1426 22.1707 14.9924 22.4916 14.8832C22.8124 14.7671 23.1674 14.7091 23.5565 14.7091C23.6999 14.7091 23.8774 14.7194 24.089 14.7398C24.6488 13.8524 25.2393 13.1287 25.8605 12.569C26.4886 12.0023 27.0859 11.719 27.6525 11.719C27.9802 11.719 28.2499 11.7668 28.4615 11.8624L26.8538 19.399H25.3792L26.1677 15.6819C25.9151 15.5659 25.683 15.4805 25.4714 15.4259C25.2598 15.3713 25.0345 15.3338 24.7956 15.3133C24.4064 16.153 24.0856 17.0131 23.833 17.8938C23.5872 18.7676 23.4644 19.4673 23.4644 19.993C23.4644 20.2524 23.5121 20.4435 23.6077 20.5664ZM26.8538 12.4461C26.5603 12.6031 26.2531 12.8966 25.9322 13.3267C25.6182 13.75 25.311 14.2654 25.0106 14.873C25.5021 14.9685 25.9185 15.088 26.2599 15.2314L26.8538 12.4461Z" fill="white"/>
<path d="M30.7242 19.5834C30.2941 19.5834 29.9152 19.5083 29.5876 19.3581C29.2599 19.2079 29.0073 18.9997 28.8298 18.7334C28.6523 18.4604 28.5636 18.1463 28.5636 17.7914C28.5636 17.491 28.625 17.2179 28.7479 16.9722C28.8776 16.7264 29.0483 16.5318 29.2599 16.3885C29.4783 16.2451 29.7173 16.1734 29.9767 16.1734C30.2156 16.1734 30.417 16.2349 30.5808 16.3578C30.7447 16.4738 30.8471 16.6377 30.888 16.8493C30.5331 16.8493 30.2497 16.9449 30.0381 17.136C29.8265 17.3203 29.7207 17.5729 29.7207 17.8938C29.7207 18.1873 29.8094 18.4228 29.9869 18.6003C30.1644 18.7778 30.3999 18.8666 30.6935 18.8666C31.0553 18.8666 31.3523 18.7471 31.5844 18.5082C31.8233 18.2624 31.9428 17.9552 31.9428 17.5866C31.9428 17.2657 31.854 16.9619 31.6765 16.6752C31.499 16.3885 31.2328 16.0403 30.8778 15.6307C30.5092 15.2075 30.2293 14.8457 30.0381 14.5453C29.8538 14.2381 29.7616 13.9036 29.7616 13.5418C29.7616 13.1868 29.8606 12.8693 30.0586 12.5894C30.2566 12.3027 30.5296 12.0774 30.8778 11.9136C31.226 11.7498 31.6185 11.6678 32.0554 11.6678C32.6084 11.6678 33.0487 11.7975 33.3764 12.057C33.7109 12.3164 33.8781 12.6645 33.8781 13.1014C33.8781 13.3882 33.8064 13.6203 33.6631 13.7978C33.5197 13.9753 33.332 14.064 33.0999 14.064C32.8405 14.064 32.6323 13.9582 32.4752 13.7466C32.6049 13.651 32.7073 13.5247 32.7824 13.3677C32.8575 13.2107 32.8951 13.0468 32.8951 12.8762C32.8951 12.6577 32.8302 12.4836 32.7005 12.3539C32.5708 12.2242 32.3933 12.1594 32.168 12.1594C31.895 12.1594 31.6697 12.2583 31.4922 12.4563C31.3215 12.6475 31.2362 12.8932 31.2362 13.1936C31.2362 13.4667 31.3147 13.7227 31.4717 13.9616C31.6287 14.1937 31.8745 14.4941 32.209 14.8627C32.4821 15.1563 32.7005 15.4089 32.8644 15.6205C33.035 15.8321 33.1784 16.0779 33.2944 16.3578C33.4173 16.6308 33.4788 16.9278 33.4788 17.2486C33.4788 17.6855 33.3559 18.0815 33.1101 18.4365C32.8712 18.7915 32.5401 19.0714 32.1168 19.2762C31.7004 19.481 31.2362 19.5834 30.7242 19.5834Z" fill="white"/>
</g>
<defs>
<filter id="filter0_d_472_62" x="0.5354" y="0.519043" width="40" height="40" filterUnits="userSpaceOnUse" color-interpolation-filters="sRGB">
<feFlood flood-opacity="0" result="BackgroundImageFix"/>
<feColorMatrix in="SourceAlpha" type="matrix" values="0 0 0 0 0 0 0 0 0 0 0 0 0 0 0 0 0 0 127 0" result="hardAlpha"/>
<feOffset dy="4"/>
<feGaussianBlur stdDeviation="2"/>
<feComposite in2="hardAlpha" operator="out"/>
<feColorMatrix type="matrix" values="0 0 0 0 0 0 0 0 0 0 0 0 0 0 0 0 0 0 0.25 0"/>
<feBlend mode="normal" in2="BackgroundImageFix" result="effect1_dropShadow_472_62"/>
<feBlend mode="normal" in="SourceGraphic" in2="effect1_dropShadow_472_62" result="shape"/>
</filter>
</defs>
</svg>
